<?xml version="1.0" standalone="no"?>
<!DOCTYPE svg PUBLIC "-//W3C//DTD SVG 20010904//EN"
 "http://www.w3.org/TR/2001/REC-SVG-20010904/DTD/svg10.dtd">
<svg version="1.0" xmlns="http://www.w3.org/2000/svg"
 width="297.000000pt" height="307.000000pt" viewBox="0 0 297.000000 307.000000"
 preserveAspectRatio="xMidYMid meet">

<g transform="translate(0.000000,307.000000) scale(0.100000,-0.100000)"
fill="#000000" stroke="none">
<path d="M0 1535 l0 -1535 1485 0 1485 0 0 1535 0 1535 -1485 0 -1485 0 0
-1535z m1474 1069 c13 -16 38 -30 62 -34 l39 -8 -35 -1 c-38 -1 -74 18 -90 50
-15 27 -3 24 24 -7z m-355 -82 c30 -3 39 -7 30 -13 -24 -15 -66 -10 -90 12
-21 18 -21 20 -4 13 11 -4 40 -9 64 -12z m786 -50 c-1 -1 -14 3 -29 9 l-26 12
23 12 c19 9 23 8 28 -10 3 -11 5 -21 4 -23z m-1055 -128 c0 -2 -9 -8 -19 -13
-15 -8 -20 -7 -24 8 -3 14 0 17 19 13 13 -2 24 -6 24 -8z m1293 -4 c-6 -24
-16 -25 -32 -6 -10 12 -8 15 11 19 13 2 24 5 25 6 0 0 -1 -8 -4 -19z m211
-261 c-13 -15 -19 -17 -26 -7 -12 20 -10 23 18 24 24 2 25 1 8 -17z m-1754
-44 c0 -8 -2 -15 -4 -15 -2 0 -6 7 -10 15 -3 8 -1 15 4 15 6 0 10 -7 10 -15z
m1805 -70 c-10 -28 -14 -33 -15 -17 0 20 20 65 27 59 1 -2 -4 -21 -12 -42z
m-1851 -40 c-7 -18 -14 -18 -38 0 -19 14 -18 15 12 15 24 0 30 -4 26 -15z
m1469 -32 c35 -56 64 -139 76 -223 38 -256 -126 -441 -394 -444 -108 -1 -145
13 -122 47 12 18 24 21 103 21 80 1 96 4 157 34 165 82 214 243 142 471 -23
72 -25 87 -14 107 17 32 25 30 52 -13z m466 -144 c-21 -13 -49 -11 -49 4 0 9
10 12 31 9 22 -3 27 -7 18 -13z m-2009 -61 c-35 -29 -48 -21 -15 10 17 15 32
23 34 18 2 -5 -6 -18 -19 -28z m10 -117 c0 -17 -3 -18 -31 -8 -30 12 -30 12
-7 18 36 11 38 10 38 -10z m2010 -64 c9 -3 3 -6 -12 -6 -20 -1 -28 4 -28 15 0
12 4 14 13 7 6 -6 19 -13 27 -16z m-18 -154 c-6 -3 -10 -9 -6 -14 3 -5 -9 -9
-25 -9 -41 0 -39 15 2 27 30 9 57 5 29 -4z m-1965 -40 c10 -10 14 -15 8 -11
-6 4 -22 12 -36 17 -15 6 -18 10 -8 10 9 1 25 -7 36 -16z m1683 -15 c0 -13
-48 -13 -62 0 -4 4 9 7 28 7 18 0 34 -3 34 -7z m-1650 -108 c-6 -11 -15 -20
-21 -20 -6 0 -3 10 5 22 9 12 17 34 17 48 2 25 2 25 6 -2 2 -15 -1 -36 -7 -48z
m1540 0 c18 9 21 9 18 -1 -2 -7 -12 -17 -21 -23 -22 -14 -70 11 -75 38 -3 16
-1 16 26 -4 25 -19 33 -20 52 -10z m-602 -101 c-26 -76 34 -148 106 -128 l31
8 -28 -24 c-61 -54 -137 -15 -137 70 0 25 7 59 15 75 20 39 27 38 13 -1z m462
-1 c17 10 20 10 20 -3 0 -8 -12 -18 -27 -21 -20 -6 -31 -2 -45 16 -27 33 -22
47 7 20 22 -21 29 -22 45 -12z m428 -14 c2 -1 -12 -2 -32 -1 -31 1 -33 3 -25
20 10 18 11 18 32 0 12 -10 23 -19 25 -19z m-589 -37 c31 1 32 0 15 -18 -9
-10 -21 -19 -26 -19 -17 0 -48 41 -48 63 0 22 1 22 13 -3 10 -20 20 -25 46
-23z m-1057 -92 c16 -19 15 -20 -17 -21 -33 0 -33 0 -17 22 10 12 17 21 17 21
0 -1 8 -11 17 -22z m1290 -194 c-4 -27 -6 -29 -23 -18 -18 11 -18 12 3 29 13
10 23 18 24 18 0 0 -1 -13 -4 -29z m-1037 -5 c36 -15 70 -57 62 -78 -3 -8 -9
-3 -15 12 -11 29 -33 50 -71 67 -37 16 -17 16 24 -1z m765 -121 c17 -9 30 -20
30 -25 0 -5 -18 0 -40 11 -27 14 -49 19 -68 15 -20 -5 -23 -4 -12 4 22 14 57
12 90 -5z m-370 -13 c0 -5 -8 -17 -19 -26 -18 -16 -19 -16 -23 9 -4 21 -2 25
18 25 13 0 24 -4 24 -8z"/>
</g>
</svg>
